<svg width="446" height="113" viewBox="0 0 446 113" fill="none" xmlns="http://www.w3.org/2000/svg">
<g clip-path="url(#clip0_201_4)">
<path d="M26.875 48.929V40.3636H63.7571V48.929H50.5256V84H40.1278V48.929H26.875ZM68.908 84V40.3636H86.9336C90.2006 40.3636 93.0202 40.9531 95.3924 42.1321C97.7788 43.2969 99.6183 44.973 100.911 47.1605C102.203 49.3338 102.85 51.9119 102.85 54.8949C102.85 57.9205 102.189 60.4915 100.868 62.608C99.5472 64.7102 97.6722 66.3153 95.2433 67.4233C92.8143 68.517 89.9379 69.0639 86.614 69.0639H75.2148V60.7543H84.6538C86.2447 60.7543 87.5728 60.5483 88.6381 60.1364C89.7177 59.7102 90.5344 59.071 91.0884 58.2188C91.6424 57.3523 91.9194 56.2443 91.9194 54.8949C91.9194 53.5455 91.6424 52.4304 91.0884 51.5497C90.5344 50.6548 89.7177 49.9872 88.6381 49.5469C87.5586 49.0923 86.2305 48.8651 84.6538 48.8651H79.4549V84H68.908ZM93.4748 64.0568L104.341 84H92.8356L82.1822 64.0568H93.4748ZM118.074 84H106.738L121.461 40.3636H135.502L150.225 84H138.89L128.642 51.358H128.301L118.074 84ZM116.561 66.8267H140.254V74.8381H116.561V66.8267ZM171.053 84H154.924V40.3636H171.032C175.478 40.3636 179.306 41.2372 182.516 42.9844C185.74 44.7173 188.226 47.2173 189.973 50.4844C191.721 53.7372 192.594 57.6293 192.594 62.1605C192.594 66.706 191.721 70.6122 189.973 73.8793C188.24 77.1463 185.762 79.6534 182.537 81.4006C179.313 83.1335 175.485 84 171.053 84ZM165.471 75.0085H170.648C173.091 75.0085 175.158 74.5966 176.848 73.7727C178.553 72.9347 179.838 71.5781 180.705 69.7031C181.586 67.8139 182.026 65.2997 182.026 62.1605C182.026 59.0213 181.586 56.5213 180.705 54.6605C179.824 52.7855 178.525 51.4361 176.806 50.6122C175.101 49.7741 172.999 49.3551 170.499 49.3551H165.471V75.0085Z" fill="black"/>
<path d="M198.752 84V40.3636H229.178V48.929H209.299V57.8778H227.623V66.4645H209.299V75.4347H229.178V84H198.752ZM259.135 84L246.436 40.3636H258.091L264.675 68.9574H265.037L272.559 40.3636H282.061L289.583 69.0213H289.945L296.55 40.3636H308.184L295.506 84H285.343L277.48 57.5369H277.14L269.277 84H259.135ZM317.234 84H305.898L320.621 40.3636H334.663L349.386 84H338.05L327.802 51.358H327.461L317.234 84ZM315.721 66.8267H339.414V74.8381H315.721V66.8267ZM380.669 54.6179C380.428 53.723 380.073 52.9347 379.604 52.2528C379.135 51.5568 378.56 50.9673 377.878 50.4844C377.196 50.0014 376.415 49.6392 375.534 49.3977C374.654 49.142 373.688 49.0142 372.637 49.0142C370.52 49.0142 368.688 49.5256 367.14 50.5483C365.605 51.571 364.419 53.0625 363.581 55.0227C362.743 56.9687 362.324 59.3338 362.324 62.1179C362.324 64.9162 362.729 67.3026 363.539 69.277C364.348 71.2514 365.52 72.7571 367.054 73.794C368.588 74.831 370.449 75.3494 372.637 75.3494C374.569 75.3494 376.202 75.0369 377.537 74.4119C378.887 73.7727 379.909 72.8707 380.605 71.706C381.301 70.5412 381.65 69.1705 381.65 67.5938L383.61 67.8281H372.999V60.1364H391.813V65.9105C391.813 69.8168 390.982 73.1619 389.32 75.946C387.672 78.7301 385.4 80.8679 382.502 82.3594C379.618 83.8509 376.301 84.5966 372.551 84.5966C368.39 84.5966 364.732 83.6946 361.578 81.8906C358.425 80.0866 355.968 77.5156 354.206 74.1776C352.445 70.8253 351.564 66.848 351.564 62.2457C351.564 58.6662 352.097 55.4915 353.162 52.7216C354.228 49.9375 355.712 47.5795 357.615 45.6477C359.533 43.7159 361.749 42.2528 364.263 41.2585C366.792 40.2642 369.512 39.767 372.424 39.767C374.952 39.767 377.303 40.1293 379.476 40.8537C381.664 41.5781 383.596 42.6009 385.272 43.9219C386.962 45.2429 388.333 46.8125 389.384 48.6307C390.435 50.4489 391.088 52.4446 391.344 54.6179H380.669ZM398.029 84V40.3636H428.455V48.929H408.576V57.8778H426.9V66.4645H408.576V75.4347H428.455V84H398.029Z" fill="#0B7AFE"/>
<path d="M198.5 53.5V40.5H224.5L218 49H209.5V58H211L209.5 60L198.5 53.5Z" fill="black" stroke="black" stroke-width="0.5"/>
<path d="M254 9L216.419 23.8657L248.084 48.9791L254 9ZM210.742 69.1749L237.168 35.8551L231.684 31.5053L205.258 64.8251L210.742 69.1749Z" fill="#FF0000"/>
<line x1="213.236" y1="66.0232" x2="177.236" y2="45.0232" stroke="#FF0000" stroke-width="7"/>
<line x1="181.881" y1="43.9871" x2="141.881" y2="101.987" stroke="#FF0000" stroke-width="7"/>
<path d="M164 84H158.5L165.279 74.3163C165.557 74.6325 168.5 75 171 75C173.5 75 176.5 74 179.5 71.5C182.5 69 181.5 59.5 181.5 57.5C181.5 55.9 180.167 53.8333 179.5 53L181 51C184.833 53.1667 192.5 57.6 192.5 58V61.5C192.9 64.3 191.667 69.6667 191 72C187.5 78.5 184 80 182 81.5C180.4 82.7 174.333 83.6667 171.5 84H164Z" fill="#0B7AFE"/>
<path d="M165.5 74L165.279 74.3163M165.279 74.3163L158.5 84H164H171.5C174.333 83.6667 180.4 82.7 182 81.5C184 80 187.5 78.5 191 72C191.667 69.6667 192.9 64.3 192.5 61.5C192.5 60.5 192.5 58.4 192.5 58C192.5 57.6 184.833 53.1667 181 51L179.5 53C180.167 53.8333 181.5 55.9 181.5 57.5C181.5 59.5 182.5 69 179.5 71.5C176.5 74 173.5 75 171 75C168.5 75 165.557 74.6325 165.279 74.3163Z" stroke="#0B7AFE" stroke-width="0.5"/>
</g>
<defs>
<clipPath id="clip0_201_4">
<rect width="446" height="113" fill="white"/>
</clipPath>
</defs>
</svg>
